M48
; DRILL file KiCad 10.0.2 date 2026-05-21T14:06:33
; FORMAT={-:-/ absolute / metric / decimal}
; #@! TF.CreationDate,2026-05-21T14:06:33-03:00
; #@! TF.GenerationSoftware,Kicad,Pcbnew,10.0.2
; #@! TF.FileFunction,Plated,1,2,PTH
FMAT,2
METRIC
; #@! TA.AperFunction,Plated,PTH,ComponentDrill
T1C0.800
; #@! TA.AperFunction,Plated,PTH,ComponentDrill
T2C0.900
; #@! TA.AperFunction,Plated,PTH,ComponentDrill
T3C1.000
; #@! TA.AperFunction,Plated,PTH,ComponentDrill
T4C1.100
%
G90
G05
T1
X132.3Y-126.75
X145.0Y-126.75
X157.5Y-126.25
X170.2Y-126.25
X183.55Y-126.25
X196.25Y-126.25
T2
X110.96Y-126.75
X113.5Y-126.75
T3
X93.98Y-88.9
X93.98Y-91.44
X93.98Y-93.98
X93.98Y-96.52
X93.98Y-99.06
X93.98Y-101.6
X109.567Y-76.24
X109.567Y-78.78
X109.567Y-81.32
X109.567Y-83.86
X109.567Y-86.4
X109.567Y-88.94
X109.567Y-91.48
X109.567Y-94.02
X109.567Y-96.56
X109.567Y-99.1
X109.567Y-101.64
X109.567Y-104.18
X109.567Y-106.72
X109.567Y-109.26
X109.567Y-111.8
X134.967Y-76.24
X134.967Y-78.78
X134.967Y-81.32
X134.967Y-83.86
X134.967Y-86.4
X134.967Y-88.94
X134.967Y-91.48
X134.967Y-94.02
X134.967Y-96.56
X134.967Y-99.1
X134.967Y-101.64
X134.967Y-104.18
X134.967Y-106.72
X134.967Y-109.26
X134.967Y-111.8
X162.25Y-73.5
X164.79Y-73.5
X167.33Y-73.5
X169.87Y-73.5
X191.25Y-74.67
X191.25Y-77.21
X191.25Y-79.75
T4
X154.0Y-97.5
X154.0Y-102.0
X160.5Y-97.5
X160.5Y-102.0
X171.5Y-97.5
X171.5Y-102.0
X178.0Y-97.5
X178.0Y-102.0
M30
