M48
; DRILL file KiCad 10.0.3 date 2026-07-09T16:57:35
; FORMAT={-:-/ absolute / metric / decimal}
; #@! TF.CreationDate,2026-07-09T16:57:35-03:00
; #@! TF.GenerationSoftware,Kicad,Pcbnew,10.0.3
; #@! TF.FileFunction,Plated,1,2,PTH
FMAT,2
METRIC
; #@! TA.AperFunction,Plated,PTH,ComponentDrill
T1C0.800
; #@! TA.AperFunction,Plated,PTH,ComponentDrill
T2C0.900
; #@! TA.AperFunction,Plated,PTH,ComponentDrill
T3C1.000
; #@! TA.AperFunction,Plated,PTH,ComponentDrill
T4C1.100
%
G90
G05
T1
X105.21Y-113.54
X105.21Y-126.24
X113.856Y-126.25
X126.556Y-126.25
X139.056Y-126.75
X151.756Y-126.75
T2
X170.556Y-126.75
X173.096Y-126.75
T3
X114.186Y-73.5
X116.726Y-73.5
X119.266Y-73.5
X120.68Y-112.72
X120.68Y-115.26
X120.68Y-117.8
X121.806Y-73.5
X129.69Y-102.02
X136.19Y-102.02
X149.09Y-76.24
X149.09Y-78.78
X149.09Y-81.32
X149.09Y-83.86
X149.09Y-86.4
X149.09Y-88.94
X149.09Y-91.48
X149.09Y-94.02
X149.09Y-96.56
X149.09Y-99.1
X149.09Y-101.64
X149.09Y-104.18
X149.09Y-106.72
X149.09Y-109.26
X149.09Y-111.8
X156.05Y-120.24
X158.59Y-120.24
X160.59Y-82.49
X161.13Y-120.24
X163.13Y-82.49
X163.67Y-120.24
X166.21Y-120.24
X168.75Y-120.24
X174.49Y-76.24
X174.49Y-78.78
X174.49Y-81.32
X174.49Y-83.86
X174.49Y-86.4
X174.49Y-88.94
X174.49Y-91.48
X174.49Y-94.02
X174.49Y-96.56
X174.49Y-99.1
X174.49Y-101.64
X174.49Y-104.18
X174.49Y-106.72
X174.49Y-109.26
X174.49Y-111.8
T4
X106.056Y-97.5
X106.056Y-102.0
X112.556Y-97.5
X112.556Y-102.0
M30
